<mxfile host="app.diagrams.net" agent="Mozilla/5.0 (Windows NT 10.0; Win64; x64) AppleWebKit/537.36 (KHTML, like Gecko) Chrome/131.0.0.0 Safari/537.36" version="25.0.3">
  <diagram id="uWoC5kH0gJauOfF4ZrrL" name="Halaman-2">
    <mxGraphModel grid="0" page="0" gridSize="10" guides="1" tooltips="1" connect="1" arrows="1" fold="1" pageScale="1" pageWidth="827" pageHeight="1169" math="0" shadow="0">
      <root>
        <mxCell id="0" />
        <mxCell id="1" parent="0" />
        <mxCell id="lF4njnmKab3k7VLM5swV-20" style="edgeStyle=none;curved=1;rounded=0;orthogonalLoop=1;jettySize=auto;html=1;exitX=0;exitY=0;exitDx=0;exitDy=0;entryX=0.5;entryY=0;entryDx=0;entryDy=0;fontSize=12;startSize=8;endSize=8;labelBackgroundColor=none;fontColor=default;" edge="1" parent="1" source="lF4njnmKab3k7VLM5swV-1" target="lF4njnmKab3k7VLM5swV-2">
          <mxGeometry relative="1" as="geometry" />
        </mxCell>
        <mxCell id="lF4njnmKab3k7VLM5swV-29" style="edgeStyle=none;curved=1;rounded=0;orthogonalLoop=1;jettySize=auto;html=1;exitX=0;exitY=0.5;exitDx=0;exitDy=0;entryX=0.5;entryY=0;entryDx=0;entryDy=0;fontSize=12;startSize=8;endSize=8;labelBackgroundColor=none;fontColor=default;" edge="1" parent="1" source="lF4njnmKab3k7VLM5swV-1" target="lF4njnmKab3k7VLM5swV-13">
          <mxGeometry relative="1" as="geometry" />
        </mxCell>
        <mxCell id="lF4njnmKab3k7VLM5swV-36" style="edgeStyle=none;curved=1;rounded=0;orthogonalLoop=1;jettySize=auto;html=1;exitX=1;exitY=1;exitDx=0;exitDy=0;entryX=0;entryY=0;entryDx=0;entryDy=0;fontSize=12;startSize=8;endSize=8;labelBackgroundColor=none;fontColor=default;" edge="1" parent="1" source="lF4njnmKab3k7VLM5swV-1" target="lF4njnmKab3k7VLM5swV-35">
          <mxGeometry relative="1" as="geometry" />
        </mxCell>
        <mxCell id="lF4njnmKab3k7VLM5swV-58" style="edgeStyle=none;curved=1;rounded=0;orthogonalLoop=1;jettySize=auto;html=1;exitX=1;exitY=0.5;exitDx=0;exitDy=0;entryX=0.5;entryY=0;entryDx=0;entryDy=0;fontSize=12;startSize=8;endSize=8;labelBackgroundColor=none;fontColor=default;" edge="1" parent="1" source="lF4njnmKab3k7VLM5swV-1" target="lF4njnmKab3k7VLM5swV-56">
          <mxGeometry relative="1" as="geometry" />
        </mxCell>
        <mxCell id="lF4njnmKab3k7VLM5swV-1" value="Mulai&amp;nbsp;" style="ellipse;whiteSpace=wrap;html=1;labelBackgroundColor=none;" vertex="1" parent="1">
          <mxGeometry x="233" y="11" width="120" height="80" as="geometry" />
        </mxCell>
        <mxCell id="lF4njnmKab3k7VLM5swV-12" style="edgeStyle=none;curved=1;rounded=0;orthogonalLoop=1;jettySize=auto;html=1;exitX=0.5;exitY=1;exitDx=0;exitDy=0;entryX=0.5;entryY=0;entryDx=0;entryDy=0;fontSize=12;startSize=8;endSize=8;labelBackgroundColor=none;fontColor=default;" edge="1" parent="1" source="lF4njnmKab3k7VLM5swV-2" target="lF4njnmKab3k7VLM5swV-3">
          <mxGeometry relative="1" as="geometry" />
        </mxCell>
        <mxCell id="lF4njnmKab3k7VLM5swV-60" style="edgeStyle=none;curved=1;rounded=0;orthogonalLoop=1;jettySize=auto;html=1;exitX=0;exitY=0.5;exitDx=0;exitDy=0;entryX=0;entryY=0;entryDx=0;entryDy=0;fontSize=12;startSize=8;endSize=8;labelBackgroundColor=none;fontColor=default;" edge="1" parent="1" source="lF4njnmKab3k7VLM5swV-2" target="lF4njnmKab3k7VLM5swV-5">
          <mxGeometry relative="1" as="geometry" />
        </mxCell>
        <mxCell id="lF4njnmKab3k7VLM5swV-2" value="Login" style="rounded=0;whiteSpace=wrap;html=1;labelBackgroundColor=none;" vertex="1" parent="1">
          <mxGeometry x="-227" y="126" width="120" height="60" as="geometry" />
        </mxCell>
        <mxCell id="lF4njnmKab3k7VLM5swV-3" value="Isi data login" style="rounded=0;whiteSpace=wrap;html=1;labelBackgroundColor=none;" vertex="1" parent="1">
          <mxGeometry x="-227" y="226" width="120" height="60" as="geometry" />
        </mxCell>
        <mxCell id="lF4njnmKab3k7VLM5swV-7" style="edgeStyle=none;curved=1;rounded=0;orthogonalLoop=1;jettySize=auto;html=1;exitX=0;exitY=0.5;exitDx=0;exitDy=0;exitPerimeter=0;fontSize=12;startSize=8;endSize=8;labelBackgroundColor=none;fontColor=default;" edge="1" parent="1" source="lF4njnmKab3k7VLM5swV-4" target="lF4njnmKab3k7VLM5swV-5">
          <mxGeometry relative="1" as="geometry" />
        </mxCell>
        <mxCell id="lF4njnmKab3k7VLM5swV-9" style="edgeStyle=none;curved=1;rounded=0;orthogonalLoop=1;jettySize=auto;html=1;exitX=1;exitY=0.5;exitDx=0;exitDy=0;exitPerimeter=0;fontSize=12;startSize=8;endSize=8;labelBackgroundColor=none;fontColor=default;" edge="1" parent="1" source="lF4njnmKab3k7VLM5swV-4" target="lF4njnmKab3k7VLM5swV-6">
          <mxGeometry relative="1" as="geometry" />
        </mxCell>
        <mxCell id="lF4njnmKab3k7VLM5swV-4" value="Validasi&lt;div&gt;data&lt;/div&gt;" style="strokeWidth=2;html=1;shape=mxgraph.flowchart.decision;whiteSpace=wrap;labelBackgroundColor=none;" vertex="1" parent="1">
          <mxGeometry x="-217" y="341" width="100" height="100" as="geometry" />
        </mxCell>
        <mxCell id="lF4njnmKab3k7VLM5swV-5" value="Tampilan eror" style="rounded=0;whiteSpace=wrap;html=1;labelBackgroundColor=none;" vertex="1" parent="1">
          <mxGeometry x="-384" y="495" width="120" height="60" as="geometry" />
        </mxCell>
        <mxCell id="lF4njnmKab3k7VLM5swV-51" style="edgeStyle=none;curved=1;rounded=0;orthogonalLoop=1;jettySize=auto;html=1;exitX=0.5;exitY=1;exitDx=0;exitDy=0;entryX=0;entryY=0;entryDx=0;entryDy=0;fontSize=12;startSize=8;endSize=8;labelBackgroundColor=none;fontColor=default;" edge="1" parent="1" source="lF4njnmKab3k7VLM5swV-6" target="lF4njnmKab3k7VLM5swV-46">
          <mxGeometry relative="1" as="geometry" />
        </mxCell>
        <mxCell id="lF4njnmKab3k7VLM5swV-6" value="" style="rounded=0;whiteSpace=wrap;html=1;labelBackgroundColor=none;" vertex="1" parent="1">
          <mxGeometry x="-145" y="495" width="120" height="60" as="geometry" />
        </mxCell>
        <mxCell id="lF4njnmKab3k7VLM5swV-8" value="Tidak valid" style="text;html=1;align=center;verticalAlign=middle;resizable=0;points=[];autosize=1;strokeColor=none;fillColor=none;fontSize=16;labelBackgroundColor=none;" vertex="1" parent="1">
          <mxGeometry x="-287" y="452" width="94" height="31" as="geometry" />
        </mxCell>
        <mxCell id="lF4njnmKab3k7VLM5swV-10" value="Valid" style="text;html=1;align=center;verticalAlign=middle;resizable=0;points=[];autosize=1;strokeColor=none;fillColor=none;fontSize=16;labelBackgroundColor=none;" vertex="1" parent="1">
          <mxGeometry x="-84" y="446" width="52" height="31" as="geometry" />
        </mxCell>
        <mxCell id="lF4njnmKab3k7VLM5swV-11" style="edgeStyle=none;curved=1;rounded=0;orthogonalLoop=1;jettySize=auto;html=1;exitX=0.5;exitY=1;exitDx=0;exitDy=0;entryX=0.5;entryY=0;entryDx=0;entryDy=0;entryPerimeter=0;fontSize=12;startSize=8;endSize=8;labelBackgroundColor=none;fontColor=default;" edge="1" parent="1" source="lF4njnmKab3k7VLM5swV-3" target="lF4njnmKab3k7VLM5swV-4">
          <mxGeometry relative="1" as="geometry" />
        </mxCell>
        <mxCell id="lF4njnmKab3k7VLM5swV-16" style="edgeStyle=none;curved=1;rounded=0;orthogonalLoop=1;jettySize=auto;html=1;exitX=0.5;exitY=1;exitDx=0;exitDy=0;entryX=0.5;entryY=0;entryDx=0;entryDy=0;fontSize=12;startSize=8;endSize=8;labelBackgroundColor=none;fontColor=default;" edge="1" parent="1" source="lF4njnmKab3k7VLM5swV-13" target="lF4njnmKab3k7VLM5swV-14">
          <mxGeometry relative="1" as="geometry" />
        </mxCell>
        <mxCell id="lF4njnmKab3k7VLM5swV-13" value="Cari pekerjaan" style="rounded=0;whiteSpace=wrap;html=1;labelBackgroundColor=none;" vertex="1" parent="1">
          <mxGeometry x="50" y="126" width="120" height="60" as="geometry" />
        </mxCell>
        <mxCell id="lF4njnmKab3k7VLM5swV-18" style="edgeStyle=none;curved=1;rounded=0;orthogonalLoop=1;jettySize=auto;html=1;exitX=0.5;exitY=1;exitDx=0;exitDy=0;entryX=0.5;entryY=0;entryDx=0;entryDy=0;fontSize=12;startSize=8;endSize=8;labelBackgroundColor=none;fontColor=default;" edge="1" parent="1" source="lF4njnmKab3k7VLM5swV-14" target="lF4njnmKab3k7VLM5swV-17">
          <mxGeometry relative="1" as="geometry" />
        </mxCell>
        <mxCell id="lF4njnmKab3k7VLM5swV-14" value="Isi kata kunci" style="rounded=0;whiteSpace=wrap;html=1;labelBackgroundColor=none;" vertex="1" parent="1">
          <mxGeometry x="50" y="226" width="120" height="60" as="geometry" />
        </mxCell>
        <mxCell id="lF4njnmKab3k7VLM5swV-22" style="edgeStyle=none;curved=1;rounded=0;orthogonalLoop=1;jettySize=auto;html=1;exitX=0.5;exitY=1;exitDx=0;exitDy=0;entryX=0.5;entryY=0;entryDx=0;entryDy=0;fontSize=12;startSize=8;endSize=8;labelBackgroundColor=none;fontColor=default;" edge="1" parent="1" source="lF4njnmKab3k7VLM5swV-17" target="lF4njnmKab3k7VLM5swV-21">
          <mxGeometry relative="1" as="geometry" />
        </mxCell>
        <mxCell id="lF4njnmKab3k7VLM5swV-17" value="Menampilkan data pekerjaan" style="rounded=0;whiteSpace=wrap;html=1;labelBackgroundColor=none;" vertex="1" parent="1">
          <mxGeometry x="50" y="326" width="120" height="60" as="geometry" />
        </mxCell>
        <mxCell id="lF4njnmKab3k7VLM5swV-24" style="edgeStyle=none;curved=1;rounded=0;orthogonalLoop=1;jettySize=auto;html=1;exitX=0.5;exitY=1;exitDx=0;exitDy=0;entryX=0.5;entryY=0;entryDx=0;entryDy=0;fontSize=12;startSize=8;endSize=8;labelBackgroundColor=none;fontColor=default;" edge="1" parent="1" source="lF4njnmKab3k7VLM5swV-21" target="lF4njnmKab3k7VLM5swV-23">
          <mxGeometry relative="1" as="geometry" />
        </mxCell>
        <mxCell id="lF4njnmKab3k7VLM5swV-21" value="Daftar" style="rounded=0;whiteSpace=wrap;html=1;labelBackgroundColor=none;" vertex="1" parent="1">
          <mxGeometry x="50" y="404" width="120" height="60" as="geometry" />
        </mxCell>
        <mxCell id="lF4njnmKab3k7VLM5swV-26" style="edgeStyle=none;curved=1;rounded=0;orthogonalLoop=1;jettySize=auto;html=1;exitX=0.5;exitY=1;exitDx=0;exitDy=0;entryX=0.5;entryY=0;entryDx=0;entryDy=0;fontSize=12;startSize=8;endSize=8;labelBackgroundColor=none;fontColor=default;" edge="1" parent="1" source="lF4njnmKab3k7VLM5swV-23" target="lF4njnmKab3k7VLM5swV-25">
          <mxGeometry relative="1" as="geometry" />
        </mxCell>
        <mxCell id="lF4njnmKab3k7VLM5swV-23" value="Isi form pekerja" style="rounded=0;whiteSpace=wrap;html=1;labelBackgroundColor=none;" vertex="1" parent="1">
          <mxGeometry x="50" y="501" width="120" height="60" as="geometry" />
        </mxCell>
        <mxCell id="lF4njnmKab3k7VLM5swV-50" style="edgeStyle=none;curved=1;rounded=0;orthogonalLoop=1;jettySize=auto;html=1;exitX=0.5;exitY=1;exitDx=0;exitDy=0;entryX=0.25;entryY=0;entryDx=0;entryDy=0;fontSize=12;startSize=8;endSize=8;labelBackgroundColor=none;fontColor=default;" edge="1" parent="1" source="lF4njnmKab3k7VLM5swV-25" target="lF4njnmKab3k7VLM5swV-46">
          <mxGeometry relative="1" as="geometry" />
        </mxCell>
        <mxCell id="lF4njnmKab3k7VLM5swV-25" value="Klik submit" style="rounded=0;whiteSpace=wrap;html=1;labelBackgroundColor=none;" vertex="1" parent="1">
          <mxGeometry x="50" y="608" width="120" height="60" as="geometry" />
        </mxCell>
        <mxCell id="lF4njnmKab3k7VLM5swV-32" style="edgeStyle=none;curved=1;rounded=0;orthogonalLoop=1;jettySize=auto;html=1;exitX=0.5;exitY=1;exitDx=0;exitDy=0;entryX=0.5;entryY=0;entryDx=0;entryDy=0;fontSize=12;startSize=8;endSize=8;labelBackgroundColor=none;fontColor=default;" edge="1" parent="1" source="lF4njnmKab3k7VLM5swV-27" target="lF4njnmKab3k7VLM5swV-31">
          <mxGeometry relative="1" as="geometry" />
        </mxCell>
        <mxCell id="lF4njnmKab3k7VLM5swV-27" value="Tambah pekerjaan" style="rounded=0;whiteSpace=wrap;html=1;labelBackgroundColor=none;" vertex="1" parent="1">
          <mxGeometry x="251" y="126" width="120" height="60" as="geometry" />
        </mxCell>
        <mxCell id="lF4njnmKab3k7VLM5swV-34" style="edgeStyle=none;curved=1;rounded=0;orthogonalLoop=1;jettySize=auto;html=1;exitX=0.5;exitY=1;exitDx=0;exitDy=0;entryX=0.5;entryY=0;entryDx=0;entryDy=0;fontSize=12;startSize=8;endSize=8;labelBackgroundColor=none;fontColor=default;" edge="1" parent="1" source="lF4njnmKab3k7VLM5swV-31" target="lF4njnmKab3k7VLM5swV-33">
          <mxGeometry relative="1" as="geometry" />
        </mxCell>
        <mxCell id="lF4njnmKab3k7VLM5swV-31" value="UI form tambah pekerjaan" style="rounded=0;whiteSpace=wrap;html=1;labelBackgroundColor=none;" vertex="1" parent="1">
          <mxGeometry x="251" y="227" width="120" height="60" as="geometry" />
        </mxCell>
        <mxCell id="lF4njnmKab3k7VLM5swV-47" style="edgeStyle=none;curved=1;rounded=0;orthogonalLoop=1;jettySize=auto;html=1;exitX=0.5;exitY=1;exitDx=0;exitDy=0;entryX=0.5;entryY=0;entryDx=0;entryDy=0;fontSize=12;startSize=8;endSize=8;labelBackgroundColor=none;fontColor=default;" edge="1" parent="1" source="lF4njnmKab3k7VLM5swV-33" target="lF4njnmKab3k7VLM5swV-46">
          <mxGeometry relative="1" as="geometry" />
        </mxCell>
        <mxCell id="lF4njnmKab3k7VLM5swV-33" value="Klik submit" style="rounded=0;whiteSpace=wrap;html=1;labelBackgroundColor=none;" vertex="1" parent="1">
          <mxGeometry x="251" y="326" width="120" height="60" as="geometry" />
        </mxCell>
        <mxCell id="lF4njnmKab3k7VLM5swV-38" style="edgeStyle=none;curved=1;rounded=0;orthogonalLoop=1;jettySize=auto;html=1;exitX=0.5;exitY=1;exitDx=0;exitDy=0;entryX=0.5;entryY=0;entryDx=0;entryDy=0;fontSize=12;startSize=8;endSize=8;labelBackgroundColor=none;fontColor=default;" edge="1" parent="1" source="lF4njnmKab3k7VLM5swV-35" target="lF4njnmKab3k7VLM5swV-37">
          <mxGeometry relative="1" as="geometry" />
        </mxCell>
        <mxCell id="lF4njnmKab3k7VLM5swV-54" style="edgeStyle=none;curved=1;rounded=0;orthogonalLoop=1;jettySize=auto;html=1;exitX=0;exitY=0.5;exitDx=0;exitDy=0;entryX=0.25;entryY=0;entryDx=0;entryDy=0;fontSize=12;startSize=8;endSize=8;labelBackgroundColor=none;fontColor=default;" edge="1" parent="1" source="lF4njnmKab3k7VLM5swV-35" target="lF4njnmKab3k7VLM5swV-41">
          <mxGeometry relative="1" as="geometry" />
        </mxCell>
        <mxCell id="lF4njnmKab3k7VLM5swV-35" value="Sign in/registrasi" style="rounded=0;whiteSpace=wrap;html=1;labelBackgroundColor=none;" vertex="1" parent="1">
          <mxGeometry x="464" y="126" width="120" height="60" as="geometry" />
        </mxCell>
        <mxCell id="lF4njnmKab3k7VLM5swV-40" style="edgeStyle=none;curved=1;rounded=0;orthogonalLoop=1;jettySize=auto;html=1;exitX=0.5;exitY=1;exitDx=0;exitDy=0;entryX=0.5;entryY=0;entryDx=0;entryDy=0;fontSize=12;startSize=8;endSize=8;labelBackgroundColor=none;fontColor=default;" edge="1" parent="1" source="lF4njnmKab3k7VLM5swV-37" target="lF4njnmKab3k7VLM5swV-39">
          <mxGeometry relative="1" as="geometry" />
        </mxCell>
        <mxCell id="lF4njnmKab3k7VLM5swV-37" value="Info form sign in" style="rounded=0;whiteSpace=wrap;html=1;labelBackgroundColor=none;" vertex="1" parent="1">
          <mxGeometry x="464" y="226" width="120" height="60" as="geometry" />
        </mxCell>
        <mxCell id="lF4njnmKab3k7VLM5swV-42" style="edgeStyle=none;curved=1;rounded=0;orthogonalLoop=1;jettySize=auto;html=1;exitX=0;exitY=1;exitDx=0;exitDy=0;entryX=0.75;entryY=0;entryDx=0;entryDy=0;fontSize=12;startSize=8;endSize=8;labelBackgroundColor=none;fontColor=default;" edge="1" parent="1" source="lF4njnmKab3k7VLM5swV-39" target="lF4njnmKab3k7VLM5swV-41">
          <mxGeometry relative="1" as="geometry" />
        </mxCell>
        <mxCell id="lF4njnmKab3k7VLM5swV-48" style="edgeStyle=none;curved=1;rounded=0;orthogonalLoop=1;jettySize=auto;html=1;exitX=1;exitY=1;exitDx=0;exitDy=0;entryX=1;entryY=0;entryDx=0;entryDy=0;fontSize=12;startSize=8;endSize=8;labelBackgroundColor=none;fontColor=default;" edge="1" parent="1" source="lF4njnmKab3k7VLM5swV-39" target="lF4njnmKab3k7VLM5swV-46">
          <mxGeometry relative="1" as="geometry" />
        </mxCell>
        <mxCell id="lF4njnmKab3k7VLM5swV-39" value="Validasi data" style="rhombus;whiteSpace=wrap;html=1;labelBackgroundColor=none;" vertex="1" parent="1">
          <mxGeometry x="484" y="316" width="80" height="80" as="geometry" />
        </mxCell>
        <mxCell id="lF4njnmKab3k7VLM5swV-41" value="Eror" style="rounded=0;whiteSpace=wrap;html=1;labelBackgroundColor=none;" vertex="1" parent="1">
          <mxGeometry x="405" y="435" width="74" height="42" as="geometry" />
        </mxCell>
        <mxCell id="lF4njnmKab3k7VLM5swV-44" value="Valid" style="text;html=1;align=center;verticalAlign=middle;resizable=0;points=[];autosize=1;strokeColor=none;fillColor=none;fontSize=16;labelBackgroundColor=none;" vertex="1" parent="1">
          <mxGeometry x="532" y="401" width="52" height="31" as="geometry" />
        </mxCell>
        <mxCell id="lF4njnmKab3k7VLM5swV-45" style="edgeStyle=none;curved=1;rounded=0;orthogonalLoop=1;jettySize=auto;html=1;exitX=0.5;exitY=1;exitDx=0;exitDy=0;entryX=0.338;entryY=0.03;entryDx=0;entryDy=0;entryPerimeter=0;fontSize=12;startSize=8;endSize=8;labelBackgroundColor=none;fontColor=default;" edge="1" parent="1" source="lF4njnmKab3k7VLM5swV-1" target="lF4njnmKab3k7VLM5swV-27">
          <mxGeometry relative="1" as="geometry" />
        </mxCell>
        <mxCell id="lF4njnmKab3k7VLM5swV-46" value="Home" style="rounded=0;whiteSpace=wrap;html=1;labelBackgroundColor=none;" vertex="1" parent="1">
          <mxGeometry x="251" y="845" width="120" height="60" as="geometry" />
        </mxCell>
        <mxCell id="lF4njnmKab3k7VLM5swV-49" value="Tidak valid" style="text;html=1;align=center;verticalAlign=middle;resizable=0;points=[];autosize=1;strokeColor=none;fillColor=none;fontSize=16;labelBackgroundColor=none;" vertex="1" parent="1">
          <mxGeometry x="441" y="404" width="94" height="31" as="geometry" />
        </mxCell>
        <mxCell id="lF4njnmKab3k7VLM5swV-59" style="edgeStyle=none;curved=1;rounded=0;orthogonalLoop=1;jettySize=auto;html=1;exitX=0.5;exitY=1;exitDx=0;exitDy=0;entryX=0.5;entryY=0;entryDx=0;entryDy=0;fontSize=12;startSize=8;endSize=8;labelBackgroundColor=none;fontColor=default;" edge="1" parent="1" source="lF4njnmKab3k7VLM5swV-56" target="lF4njnmKab3k7VLM5swV-57">
          <mxGeometry relative="1" as="geometry" />
        </mxCell>
        <mxCell id="lF4njnmKab3k7VLM5swV-56" value="All view" style="rounded=0;whiteSpace=wrap;html=1;labelBackgroundColor=none;" vertex="1" parent="1">
          <mxGeometry x="651" y="126" width="120" height="60" as="geometry" />
        </mxCell>
        <mxCell id="tDpn3ZWSWtext8koMGCQ-2" style="edgeStyle=none;curved=1;rounded=0;orthogonalLoop=1;jettySize=auto;html=1;exitX=0;exitY=1;exitDx=0;exitDy=0;entryX=1;entryY=0.75;entryDx=0;entryDy=0;fontSize=12;startSize=8;endSize=8;labelBackgroundColor=none;fontColor=default;" edge="1" parent="1" source="lF4njnmKab3k7VLM5swV-57" target="lF4njnmKab3k7VLM5swV-21">
          <mxGeometry relative="1" as="geometry" />
        </mxCell>
        <mxCell id="lF4njnmKab3k7VLM5swV-57" value="Tampilan seluruh data pekerjaan" style="rounded=0;whiteSpace=wrap;html=1;labelBackgroundColor=none;" vertex="1" parent="1">
          <mxGeometry x="651" y="499" width="120" height="60" as="geometry" />
        </mxCell>
        <mxCell id="lF4njnmKab3k7VLM5swV-62" value="Selesai" style="ellipse;whiteSpace=wrap;html=1;labelBackgroundColor=none;" vertex="1" parent="1">
          <mxGeometry x="251" y="945" width="120" height="80" as="geometry" />
        </mxCell>
      </root>
    </mxGraphModel>
  </diagram>
</mxfile>
